<svg id="clock" xmlns="http://www.w3.org/2000/svg" width="80" height="80" viewBox="0 0 80 80">
  <path id="Path_9" data-name="Path 9" d="M40,80A40,40,0,0,1,11.715,11.715a40,40,0,0,1,56.57,56.57A39.742,39.742,0,0,1,40,80ZM40,2.5A37.5,37.5,0,0,0,13.484,66.516,37.5,37.5,0,1,0,66.516,13.484,37.255,37.255,0,0,0,40,2.5Z" fill="#fff"/>
  <path id="Path_10" data-name="Path 10" d="M2.5,35A32.506,32.506,0,0,1,53.056,7.974,1.25,1.25,0,1,0,54.447,5.9,35,35,0,0,0,8.911,58.333a1.25,1.25,0,0,0,1.863-1.667A32.443,32.443,0,0,1,2.5,35Z" transform="translate(5 5)" fill="#fff"/>
  <path id="Path_11" data-name="Path 11" d="M51.607.556a1.25,1.25,0,0,0-2.078,1.391A32.5,32.5,0,0,1,2.036,45.252,1.25,1.25,0,1,0,.461,47.193,35.079,35.079,0,0,0,22.5,55a35,35,0,0,0,35-35A34.836,34.836,0,0,0,51.607.556Z" transform="translate(17.498 19.999)" fill="#fff"/>
  <path id="Path_12" data-name="Path 12" d="M.415,2.183A32.769,32.769,0,0,1,2.824,4.572,1.249,1.249,0,0,0,4.676,2.894,35.338,35.338,0,0,0,2.083.322,1.249,1.249,0,1,0,.415,2.183Z" transform="translate(61.249 13.593)" fill="#fff"/>
  <path id="Path_13" data-name="Path 13" d="M1.25,6.252A1.25,1.25,0,0,0,2.5,5V1.252a1.25,1.25,0,1,0-2.5,0V5A1.25,1.25,0,0,0,1.25,6.252Z" transform="translate(38.75 10)" fill="#fff"/>
  <path id="Path_14" data-name="Path 14" d="M0,1.252V5A1.25,1.25,0,1,0,2.5,5V1.252a1.25,1.25,0,1,0-2.5,0Z" transform="translate(38.75 63.75)" fill="#fff"/>
  <path id="Path_15" data-name="Path 15" d="M6.25,1.251A1.25,1.25,0,0,0,5,0H1.25a1.25,1.25,0,1,0,0,2.5H5A1.25,1.25,0,0,0,6.25,1.251Z" transform="translate(10 38.75)" fill="#fff"/>
  <path id="Path_16" data-name="Path 16" d="M0,1.251A1.25,1.25,0,0,0,1.25,2.5H5A1.25,1.25,0,1,0,5,0H1.25A1.25,1.25,0,0,0,0,1.251Z" transform="translate(63.75 38.75)" fill="#fff"/>
  <path id="Path_17" data-name="Path 17" d="M4.208,3.875,2.335.628A1.249,1.249,0,1,0,.172,1.878L2.045,5.124a1.249,1.249,0,1,0,2.163-1.25Z" transform="translate(24.375 13.852)" fill="#fff"/>
  <path id="Path_18" data-name="Path 18" d="M2.33.627A1.249,1.249,0,1,0,.167,1.876L2.04,5.123A1.249,1.249,0,1,0,4.2,3.873Z" transform="translate(51.25 60.401)" fill="#fff"/>
  <path id="Path_19" data-name="Path 19" d="M1.253,4.372A1.246,1.246,0,0,0,1.876,4.2L5.123,2.331A1.249,1.249,0,1,0,3.873.169L.627,2.042a1.249,1.249,0,0,0,.626,2.33Z" transform="translate(13.852 51.25)" fill="#fff"/>
  <path id="Path_20" data-name="Path 20" d="M1.251,4.377a1.244,1.244,0,0,0,.624-.168L5.122,2.332A1.251,1.251,0,0,0,3.872.164L.625,2.041a1.252,1.252,0,0,0,.626,2.335Z" transform="translate(60.4 24.375)" fill="#fff"/>
  <path id="Path_21" data-name="Path 21" d="M3.746.171A1.248,1.248,0,0,0,2.04.628L.167,3.875A1.249,1.249,0,1,0,2.33,5.124L4.2,1.878A1.25,1.25,0,0,0,3.746.171Z" transform="translate(51.25 13.851)" fill="#fff"/>
  <path id="Path_22" data-name="Path 22" d="M3.751.17A1.248,1.248,0,0,0,2.045.627L.172,3.873a1.249,1.249,0,1,0,2.163,1.25L4.208,1.877A1.25,1.25,0,0,0,3.751.17Z" transform="translate(24.375 60.4)" fill="#fff"/>
  <path id="Path_23" data-name="Path 23" d="M.625,2.332,3.872,4.2a1.249,1.249,0,1,0,1.25-2.163L1.875.169A1.249,1.249,0,1,0,.625,2.332Z" transform="translate(60.4 51.25)" fill="#fff"/>
  <path id="Path_24" data-name="Path 24" d="M5.123,2.042,1.876.164A1.251,1.251,0,0,0,.627,2.332L3.873,4.209a1.251,1.251,0,0,0,1.25-2.168Z" transform="translate(13.852 24.375)" fill="#fff"/>
  <path id="Path_25" data-name="Path 25" d="M12.452,37.57a1.256,1.256,0,0,1-1.084-.625L4.435,24.936A3.75,3.75,0,0,1,2.5,17.715V1.25a1.25,1.25,0,1,1,2.5,0V17.715a3.746,3.746,0,0,1,1.6,5.97l6.935,12.01a1.25,1.25,0,0,1-1.082,1.876ZM3.75,20A1.25,1.25,0,1,0,5,21.25,1.252,1.252,0,0,0,3.75,20Z" transform="translate(36.25 18.75)" fill="#fff"/>
</svg>
