<svg xmlns="http://www.w3.org/2000/svg" width="79.923" height="79.925" viewBox="0 0 79.923 79.925">
  <g id="search" transform="translate(0 0)">
    <path id="Path_28" data-name="Path 28" d="M25.129,50.257A25.128,25.128,0,1,1,50.257,25.129,25.157,25.157,0,0,1,25.129,50.257Zm0-47.678a22.55,22.55,0,1,0,22.55,22.55A22.576,22.576,0,0,0,25.129,2.579Z" transform="translate(29.666)" fill="#fff"/>
    <path id="Path_29" data-name="Path 29" d="M.375,4.344A1.289,1.289,0,1,0,2.2,6.167a12.236,12.236,0,0,1,17.305,0,1.289,1.289,0,1,0,1.823-1.823,14.813,14.813,0,0,0-20.951,0Z" transform="translate(43.94 10.313)" fill="#fff"/>
    <path id="Path_30" data-name="Path 30" d="M7.574,36.81c-2.017,0-3.77-1.52-4.913-2.663a8.918,8.918,0,0,1-2.487-3.7A4.287,4.287,0,0,1,1.45,26.033L21.327,6.156a6.6,6.6,0,0,1,8.324-.823L34.608.377A1.289,1.289,0,0,1,36.431,2.2L31.475,7.157a6.6,6.6,0,0,1-.823,8.324L28.231,17.9,10.775,35.358A4.468,4.468,0,0,1,7.574,36.81Zm12.242-25.5h0L3.273,27.857a1.843,1.843,0,0,0-.686,1.56,5.7,5.7,0,0,0,1.9,2.907C5.75,33.59,6.79,34.232,7.574,34.232a1.977,1.977,0,0,0,1.377-.7L25.5,16.992l-5.679-5.679ZM25.989,6.8a3.988,3.988,0,0,0-2.839,1.175L21.64,9.491l5.678,5.678,1.511-1.51A4.015,4.015,0,0,0,25.989,6.8Z" transform="translate(0 43.115)" fill="#fff"/>
    <path id="Path_31" data-name="Path 31" d="M38.759,21.326a1.289,1.289,0,0,0-1.453,1.1,17.451,17.451,0,1,1,0-4.807,1.289,1.289,0,1,0,2.554-.352,20.028,20.028,0,1,0,0,5.51,1.289,1.289,0,0,0-1.1-1.453Z" transform="translate(34.77 5.104)" fill="#fff"/>
  </g>
</svg>
