<svg xmlns="http://www.w3.org/2000/svg" width="74.666" height="79.649" viewBox="0 0 74.666 79.649">
  <g id="administrator" transform="translate(0 0)">
    <path id="Path_7" data-name="Path 7" d="M69.688,27.377H4.978A4.768,4.768,0,0,1,0,22.864V19.778a13.7,13.7,0,0,1,2.38-7.639A12.089,12.089,0,0,1,9.146,7.205c.024-.007.051-.014.081-.02l9.928-2.076,2.672-4.053c.014-.021.028-.041.043-.061A2.5,2.5,0,0,1,23.561.018a2.471,2.471,0,0,1,.3-.018,2.5,2.5,0,0,1,1.58.562l.012.01.012.01L37.333,10.8,49.2.582l.012-.01.012-.01A2.5,2.5,0,0,1,50.809,0a2.471,2.471,0,0,1,.3.018A2.5,2.5,0,0,1,52.8,1c.015.02.03.04.044.061l2.672,4.053,9.927,2.076c.03.006.057.013.081.02a12.089,12.089,0,0,1,6.766,4.933,13.7,13.7,0,0,1,2.38,7.639v3.086A4.768,4.768,0,0,1,69.688,27.377ZM42.013,18.883a3.742,3.742,0,0,1-.877,1.254l.95,4.752h27.6a2.3,2.3,0,0,0,2.489-2.025V19.778c0-4.02-2.5-8.8-7.29-10.165l-9.6-2.008L45.806,20.642a1.241,1.241,0,0,1-.909.509c-.03,0-.061,0-.1,0a1.235,1.235,0,0,1-.879-.364l-1.907-1.908h0Zm-6.147,2.265-.748,3.74h4.431l-.749-3.74-.041,0c-.059,0-.12,0-.181,0H36.088C36.013,21.155,35.938,21.152,35.866,21.148ZM19.378,7.6l-9.6,2.008c-4.786,1.363-7.29,6.146-7.29,10.165v3.086a2.3,2.3,0,0,0,2.489,2.025h27.6l.95-4.752a3.727,3.727,0,0,1-.876-1.254L30.746,20.79a1.232,1.232,0,0,1-.879.365c-.036,0-.068,0-.1,0a1.238,1.238,0,0,1-.909-.509Zm17.955,6.6h0l-2.488,2.489v.73a1.245,1.245,0,0,0,1.244,1.244h2.489a1.246,1.246,0,0,0,1.245-1.244v-.73L37.333,14.2ZM50.8,2.49,39.161,12.513,41.945,15.3l2.7,2.7L53.241,6.188Zm-26.941,0-2.438,3.7L30.016,18l2.7-2.7,2.785-2.786L23.863,2.49Z" transform="translate(0 52.272)" fill="#fff"/>
    <path id="Path_8" data-name="Path 8" d="M3.733,56.008a1.246,1.246,0,0,1-1.245-1.245V39.616A3.744,3.744,0,0,1,0,36.1V28.63A3.737,3.737,0,0,1,3.733,24.9h.208a69.216,69.216,0,0,1-1.453-11.2c0-6.595,3.882-11.2,9.439-11.2a1.223,1.223,0,0,1,.252.026A14.652,14.652,0,0,1,20.986,0,53.652,53.652,0,0,1,31.236,1.39l.014,0a47.635,47.635,0,0,0,8.882,1.246,14.237,14.237,0,0,0,2-.133h.013l.086-.008H42.4l.07.008.052.006.045.01.017,0,.058.013.031.01.026.008.011,0,.046.016c.017.006.033.013.049.021l.009,0,.018.008.031.014.043.023.021.012.01.006.029.017c.023.014.045.03.068.046l.015.01.015.01.065.054.013.011.014.011c.018.018.036.036.054.055l.031.032.022.026.022.026.013.017.021.027.023.035.008.012c.013.019.025.039.037.059s.012.021.018.032l0,.009c.013.023.024.047.035.071l.007.013A23.8,23.8,0,0,1,44.7,11.065,49.674,49.674,0,0,1,43.046,24.9h.509a3.737,3.737,0,0,1,3.733,3.733V36.1c0,5.673-3.156,11.013-7.854,13.288a9.979,9.979,0,0,1-4.369,1.04c-.18,0-.376-.007-.6-.023l-.011.011-.032.031A16.233,16.233,0,0,1,23.656,54.76c-4.953,0-9.674-2.468-13.293-6.951A24.706,24.706,0,0,1,6.117,39.83H4.978V54.763A1.246,1.246,0,0,1,3.733,56.008ZM17.86,18.161a60.807,60.807,0,0,0-7.064.418c-.789,1.762-3.368,7.86-3.368,12.326v1.418A22.521,22.521,0,0,0,12.3,46.247c3.138,3.886,7.171,6.025,11.356,6.025a13.388,13.388,0,0,0,7.751-2.611,10.317,10.317,0,0,1-2.313-1.389,1.1,1.1,0,0,1-.107-.1,3.693,3.693,0,0,1-1.609.365,3.734,3.734,0,1,1,3.733-3.733,3.685,3.685,0,0,1-.361,1.6,6.991,6.991,0,0,0,4.313,1.531,7.517,7.517,0,0,0,3.287-.794,11.932,11.932,0,0,0,5.908-7.381,3.709,3.709,0,0,1-.7.067H41.168A24.928,24.928,0,0,1,38.6,45.464a1.244,1.244,0,0,1-2.116-1.31,22.739,22.739,0,0,0,3.371-11.821V27.4l-2.244-5.34a36.558,36.558,0,0,0-7.093-2.442A53.869,53.869,0,0,0,17.86,18.161Zm9.518,25.4a1.244,1.244,0,1,0,1.244,1.245A1.246,1.246,0,0,0,27.378,43.564ZM42.34,27.386v4.946a24.678,24.678,0,0,1-.524,5.009h1.739A1.245,1.245,0,0,0,44.8,36.1V28.63a1.245,1.245,0,0,0-1.244-1.244Zm-38.607,0A1.246,1.246,0,0,0,2.489,28.63V36.1a1.246,1.246,0,0,0,1.245,1.244H5.465a24.59,24.59,0,0,1-.526-5.019V29.629c-.2-.878-.378-1.7-.492-2.243Zm8.54-22.453h0a1.221,1.221,0,0,1-.346.05c-3.459,0-6.95,2.693-6.95,8.71A63.528,63.528,0,0,0,6.234,23.62a51.464,51.464,0,0,1,2.6-6.735l0-.006c.013-.024.026-.049.04-.071l.006-.012c.005-.01.01-.019.016-.028s.023-.033.034-.05l.012-.017a.412.412,0,0,1,.025-.035l0,0,0,0A1.235,1.235,0,0,1,9.2,16.44l.009-.008.02-.016a1.241,1.241,0,0,1,.391-.186l.046-.013.034-.007.018,0,.011,0,.06-.01.009,0a64.231,64.231,0,0,1,8.163-.532c13.092,0,20.893,4.23,21.219,4.411a1.246,1.246,0,0,1,.545.607l1.138,2.705c2.091-8.6,1.358-15.553.595-18.305-.447.033-.895.049-1.33.049a49.4,49.4,0,0,1-9.381-1.3A51.354,51.354,0,0,0,21.033,2.5,12.225,12.225,0,0,0,13.37,4.73a1.23,1.23,0,0,1-.749.252,1.259,1.259,0,0,1-.347-.049Z" transform="translate(13.689)" fill="#fff"/>
  </g>
</svg>
