<svg xmlns="http://www.w3.org/2000/svg" width="82.789" height="78.354" viewBox="0 0 82.789 78.354">
  <path id="Path_27" data-name="Path 27" d="M66.527,78.354a4.44,4.44,0,0,1-4.435-4.435V72.441H20.7v1.478a4.435,4.435,0,1,1-8.87,0V72.441A7.4,7.4,0,0,1,4.45,65.49a1.389,1.389,0,0,1-.014-.2V45.8A9.609,9.609,0,0,1,9.609,28.089c.226,0,.461.01.74.031V10.349A10.36,10.36,0,0,1,20.7,0H62.092A10.361,10.361,0,0,1,72.441,10.349V28.121c.278-.022.52-.031.739-.031A9.609,9.609,0,0,1,78.354,45.8v19.5a1.389,1.389,0,0,1-.014.2,7.4,7.4,0,0,1-7.377,6.951v1.478A4.44,4.44,0,0,1,66.527,78.354Zm-1.479-5.913v1.478a1.479,1.479,0,0,0,2.957,0V72.441Zm-50.265,0v1.478a1.479,1.479,0,0,0,2.957,0V72.441ZM9.609,31.046A6.652,6.652,0,0,0,6.586,43.624a1.472,1.472,0,0,1,.806,1.317V65.048a4.44,4.44,0,0,0,4.435,4.435H70.962A4.44,4.44,0,0,0,75.4,65.048V44.941a1.473,1.473,0,0,1,.806-1.317A6.652,6.652,0,1,0,66.527,37.7V50.265a7.4,7.4,0,0,1-7.392,7.392H57.657a1.478,1.478,0,0,1,0-2.956h1.479a4.435,4.435,0,1,0,0-8.87H23.654a4.435,4.435,0,0,0,0,8.87H42.872a1.478,1.478,0,1,1,0,2.956H23.654a7.4,7.4,0,0,1-7.392-7.392V37.7A6.66,6.66,0,0,0,9.609,31.046ZM23.654,42.873H59.135a7.32,7.32,0,0,1,4.435,1.482V37.7a9.594,9.594,0,0,1,5.913-8.869V10.349a7.4,7.4,0,0,0-7.392-7.393H20.7a7.4,7.4,0,0,0-7.392,7.393V28.83A9.6,9.6,0,0,1,19.219,37.7v6.657A7.321,7.321,0,0,1,23.654,42.873Z" transform="translate(0 0)" fill="#fff"/>
</svg>
