<svg xmlns="http://www.w3.org/2000/svg" width="41.75" height="51.385" viewBox="0 0 41.75 51.385">
  <g id="stopwatch-tool" transform="translate(-48)">
    <path id="Контур_6" data-name="Контур 6" d="M68.875,9.635A20.875,20.875,0,1,0,89.75,30.51,20.875,20.875,0,0,0,68.875,9.635Zm1.606,38.457V46.567a1.606,1.606,0,1,0-3.212,0v1.524A17.683,17.683,0,0,1,51.293,32.115h1.524a1.606,1.606,0,1,0,0-3.212H51.293A17.68,17.68,0,0,1,67.269,12.928v1.524a1.606,1.606,0,1,0,3.212,0V12.928A17.683,17.683,0,0,1,86.457,28.9H84.933a1.606,1.606,0,1,0,0,3.212h1.524A17.685,17.685,0,0,1,70.481,48.092ZM64.058,4.817V1.606A1.6,1.6,0,0,1,65.663,0h6.423a1.6,1.6,0,0,1,1.606,1.606V4.817a1.6,1.6,0,0,1-1.606,1.606V8.286a20.177,20.177,0,0,0-6.423,0V6.423A1.6,1.6,0,0,1,64.058,4.817Zm18.67,8.023a22.53,22.53,0,0,0-5.473-3.174,2.239,2.239,0,0,1,.078-.232l1.606-2.779a1.6,1.6,0,0,1,2.2-.59l2.779,1.606a1.609,1.609,0,0,1,.59,2.2L82.9,12.645A1.687,1.687,0,0,1,82.728,12.84Zm.053,9.641a1.606,1.606,0,0,1-.587,2.2L69.678,31.9a1.6,1.6,0,0,1-1.606,0L55.558,24.676a1.607,1.607,0,0,1,1.606-2.785l11.711,6.765,11.714-6.765A1.609,1.609,0,0,1,82.781,22.481Z" fill="#20222b"/>
  </g>
</svg>
