<svg id="Слой_x0020_1" xmlns="http://www.w3.org/2000/svg" width="14" height="14" viewBox="0 0 14 14">
  <path id="Path_79" data-name="Path 79" d="M10.137,14H3.864A3.869,3.869,0,0,1,0,10.136V3.862A3.867,3.867,0,0,1,3.864,0h6.273A3.867,3.867,0,0,1,14,3.862v6.274A3.869,3.869,0,0,1,10.137,14ZM3.864,1.24A2.625,2.625,0,0,0,1.242,3.862v6.274a2.624,2.624,0,0,0,2.622,2.621h6.273a2.624,2.624,0,0,0,2.621-2.621V3.862A2.624,2.624,0,0,0,10.137,1.24ZM7,10.6A3.606,3.606,0,1,1,10.607,7,3.61,3.61,0,0,1,7,10.6ZM7,4.634A2.366,2.366,0,1,0,9.365,7,2.369,2.369,0,0,0,7,4.634Zm3.758-.475a.91.91,0,1,1,.644-.266A.913.913,0,0,1,10.759,4.159Z" fill="#fff"/>
</svg>
