<svg id="Слой_x0020_1" xmlns="http://www.w3.org/2000/svg" width="8" height="13.654" viewBox="0 0 8 13.654">
  <path id="Path_80" data-name="Path 80" d="M6.643,13.654c-.576,0-1.12-.6-1.645-1.185a6.559,6.559,0,0,0-.942-.919l-.023-.017h0l0,0,0,0-.005,0,0,0-.005,0,0,0-.005,0,0,0-.005,0,0,0,0,0-.006,0,0,0,0,0-.026.018a6.553,6.553,0,0,0-.94.918c-.525.583-1.069,1.185-1.646,1.185-.886,0-1.072-.66-1.072-1.214,0-.416.6-.971,1.188-1.508a6.636,6.636,0,0,0,.955-.992,5.9,5.9,0,0,0-.588-.223C1.064,9.451,0,9.087,0,8.154a1.223,1.223,0,0,1,.3-.7.993.993,0,0,1,.726-.312,2.381,2.381,0,0,1,1.068.364,2.778,2.778,0,0,0,.326.159,4.752,4.752,0,0,0,1.571.3H4.01a4.76,4.76,0,0,0,1.571-.3A2.775,2.775,0,0,0,5.908,7.5a2.381,2.381,0,0,1,1.068-.363.993.993,0,0,1,.726.312,1.223,1.223,0,0,1,.3.7c0,.933-1.064,1.3-1.841,1.563a5.905,5.905,0,0,0-.588.223,6.619,6.619,0,0,0,.956.993c.584.537,1.188,1.092,1.188,1.507C7.715,12.994,7.529,13.654,6.643,13.654ZM3.976,7.094A3.547,3.547,0,1,1,7.523,3.547,3.551,3.551,0,0,1,3.976,7.094Zm0-4.958a1.411,1.411,0,1,0,1.41,1.411A1.413,1.413,0,0,0,3.976,2.136Z" fill="#fff"/>
</svg>
