<svg xmlns="http://www.w3.org/2000/svg" width="15.001" height="8.552" viewBox="0 0 15.001 8.552">
  <path id="Path_81" data-name="Path 81" d="M14.982.622q.18.5-1.172,2.294-.187.25-.508.663-.312.4-.43.562a3.751,3.751,0,0,0-.238.386.515.515,0,0,0-.094.328,1.76,1.76,0,0,0,.1.269,1.117,1.117,0,0,0,.254.336q.18.172.445.414a.085.085,0,0,1,.039.031A7.774,7.774,0,0,1,14.873,7.63a1.081,1.081,0,0,1,.051.1.959.959,0,0,1,.055.207.6.6,0,0,1,0,.265.386.386,0,0,1-.2.215.906.906,0,0,1-.461.1l-2,.031a.876.876,0,0,1-.437-.039,1.9,1.9,0,0,1-.406-.172l-.156-.094a3.659,3.659,0,0,1-.547-.5q-.312-.336-.535-.6a2.586,2.586,0,0,0-.476-.453.5.5,0,0,0-.441-.121.511.511,0,0,0-.062.027.681.681,0,0,0-.133.113.992.992,0,0,0-.168.23,1.6,1.6,0,0,0-.133.406,2.572,2.572,0,0,0-.051.6.794.794,0,0,1-.027.215.527.527,0,0,1-.059.144l-.031.039a.621.621,0,0,1-.414.172h-.9A3.552,3.552,0,0,1,6.2,8.383,4.361,4.361,0,0,1,5.176,7.97a9.367,9.367,0,0,1-.8-.515,4.64,4.64,0,0,1-.551-.449l-.2-.187q-.078-.078-.215-.234t-.558-.71Q2.431,5.32,2.025,4.7T1.068,3.049Q.518,2.027.049.926A.622.622,0,0,1,0,.715.252.252,0,0,1,.026.591L.057.544A.544.544,0,0,1,.5.4L2.642.38a.836.836,0,0,1,.18.051A.53.53,0,0,1,2.947.5L2.986.52a.515.515,0,0,1,.187.25q.156.39.359.808t.32.636l.125.226q.226.468.437.812a4.009,4.009,0,0,0,.379.535,1.87,1.87,0,0,0,.324.3.5.5,0,0,0,.266.109.583.583,0,0,0,.211-.039.134.134,0,0,0,.039-.039,1.55,1.55,0,0,0,.094-.172,1.263,1.263,0,0,0,.105-.367q.035-.226.074-.632a6.06,6.06,0,0,0,0-.976,3.624,3.624,0,0,0-.07-.57,1.494,1.494,0,0,0-.109-.359L5.68.95A.958.958,0,0,0,5.016.614Q4.915.6,5.055.427a.925.925,0,0,1,.3-.234A5.127,5.127,0,0,1,7.219.005a5.2,5.2,0,0,1,1.054.1.9.9,0,0,1,.262.105A.419.419,0,0,1,8.695.4a1.22,1.22,0,0,1,.082.25A1.8,1.8,0,0,1,8.8,1q0,.226-.008.429t-.02.55q-.012.347-.012.644,0,.086-.008.328t0,.375q0,.133.027.316a.858.858,0,0,0,.09.3.519.519,0,0,0,.176.191l.133.031q.07.016.2-.086a2.837,2.837,0,0,0,.3-.269,4.036,4.036,0,0,0,.406-.523q.242-.355.531-.839A12.73,12.73,0,0,0,11.452.7.535.535,0,0,1,11.53.563a.349.349,0,0,1,.086-.082l.031-.023.039-.02a.415.415,0,0,1,.1-.023.628.628,0,0,1,.156,0L14.193.4a1.229,1.229,0,0,1,.5.02.456.456,0,0,1,.242.129Z" transform="translate(-0.002 -0.004)" fill="#fff"/>
</svg>
